<?xml version="1.0" encoding="utf-8"?>
<!-- Generator: Adobe Illustrator 24.3.0, SVG Export Plug-In . SVG Version: 6.00 Build 0)  -->
<svg version="1.1" id="Layer_1" xmlns="http://www.w3.org/2000/svg" xmlns:xlink="http://www.w3.org/1999/xlink" x="0px" y="0px"
	 viewBox="0 0 500 500" style="enable-background:new 0 0 500 500;" xml:space="preserve">
<style type="text/css">
	.st0{fill:#938F8F;}
</style>
<g>
	<g>
		<g>
			<g>
				<path class="st0" d="M297.85,151l0.24,0.29c0.32,0.3,0.64,0.6,0.95,0.9c0.75,0.28,1.67,0.95,2.79,1.87
					c1.11,0.93,2.39,2.13,3.91,3.42c0.11-0.14-0.05-0.5,1.11,0.3c4.8,4.13,2.5,1.95,6.4,4.33c-1.14-0.82-2.6-1.8-3.04-2.38
					c2.37,1.7,4.79,3.33,7.28,4.88c-0.83-0.95-1.42-1.82-0.05-1.25c-0.34-1.07,2.5-0.19,3.81-0.27c-1.26-0.89-2.21-1.66-2.65-2.04
					c0.34-0.15,1.62,0.56,3.17,1.47c-0.08-0.14-0.16-0.28-0.35-0.48c0.19,0.2,0.28,0.34,0.35,0.48c1.02,0.6,2.17,1.28,3.22,1.91
					c-0.58-0.43-1.11-0.85-0.75-0.79c-1.47-0.87-2.92-1.76-4.34-2.7c-0.1-0.15,0.07-0.1,0.35,0.02l-1.2-0.57l0.75,0.71
					c0.22,0.31-0.4,0.01-1.02-0.29c-1.15-0.73-1.36-1.04-1.87-1.49c-0.82-0.42-1.61-0.88-2.41-1.32c-0.57-0.08,0.83,1.05,1.92,1.88
					c1.09,0.83,1.83,1.43-0.15,0.37c-0.35-0.29-0.71-0.59-1.05-0.9c-1.76-1.07-3.95-2.72-5.27-3.27c-1.24-1.76-4.88-3.25-4.59-4.16
					c-2.92-2.65-6.29-5.7-9.56-8.85c-3.2-3.22-6.28-6.58-8.44-9.9c-1.32-0.68-2.22,0.09-4.96-2.18c-0.35-0.61-0.92-1.5-0.59-1.3
					l-1.73-1.74c0.85,1.11,1.94,2.46,2.19,3.15c-2.54-2.89,0.65,1.7,0.23,1.61c-1.18-1.3-2.31-2.65-3.47-3.98l0.28,0.57
					c5.55,7.63,11.51,15.01,18.34,21.58L297.85,151z"/>
				<path class="st0" d="M375.94,112.43l0.44-0.53c6.39,6.71,11.75,15.05,16.12,24.25c4.37,9.21,7.74,19.38,10.27,29.93
					c1.18,5.12,1.61,10.44,0.95,15.67c-0.59,5.24-2.42,10.32-5.11,14.99c-2.75,4.64-6.36,8.88-10.58,12.58
					c-2.09,1.87-4.32,3.62-6.66,5.26c-2.32,1.66-4.76,3.19-7.26,4.64c-5,2.91-10.28,5.46-15.72,7.74
					c-5.44,2.3-11.04,4.31-16.73,6.14c-11.39,3.66-23.13,6.55-34.99,8.97c-23.73,4.83-47.89,7.88-71.58,10.21l2.07-2.74
					c-25.12,4.01-54.06,6.44-77.94,8.87l9.3,0.16c-8.45,1.74-30.22,3.11-43.66,2.81l1.32-0.66c18.39-0.52-1.24-0.2,6.18-2.07
					l3.19-0.37l-1.87-0.3l-3.19,0.36c0.36-0.39,0.08-0.87,3.09-1.04l-4.26-0.03c-9.17-1.74-9.18-3.31-8.04-5.32
					c-2.39,0.25,0.11,2.25-10.08,1.57l1.33-0.65l-11.16,1.11l-4.96-0.91c-3.98,0.37-6.55,0.77-10.63,0.44l-1.26,1.31
					c-18.24-0.81-41.33-0.04-59.79-1.98c-4.12,1.08-13.99-1.14-24.31-0.79l4.31,1.73c5.51,1.33,14.83,2.11,25.03,2.67
					c10.2,0.56,21.27,0.91,30.32,1.53l-0.73,0.74c-3.81,0.11-6.59,0.64-11.29,0.1l-1.28,1.29c3.89,2.5,12.09,2.54,20.12,2
					c8.03-0.53,15.89-1.63,19.18-1.23c13.96,1.53-9.19,2.7-2.51,2.63c-15.44,1.48,12.79,3.58,19.33,5.13
					c9.07,1.63,23.61,2.05,38.88,1.8c15.28-0.24,31.27-1.16,43.3-1.77c19.99-2.57,43.34-4.12,66.37-6.29
					c23.02-2.12,45.74-4.96,64.13-9.24c8.87-1.81,20.06-5.94,30.3-10.14c5.13-2.09,10.04-4.18,14.42-5.89
					c4.38-1.71,8.25-3.03,11.4-3.44c5.28-2.51,10.49-5.36,15.52-8.69c5.01-3.36,9.87-7.21,14.24-11.85l0.01,1.11
					c3.19-3.42,6.17-7.29,8.58-11.68c2.41-4.38,4.26-9.22,5.31-14.24c1.03-5.03,1.26-10.2,0.83-15.17c-0.08-1.25-0.29-2.47-0.44-3.7
					c-0.18-1.22-0.44-2.41-0.66-3.62l-0.86-3.52l-0.92-3.15c-2.46-8.38-5.46-16.59-9.08-24.36c-3.66-7.75-7.86-15.09-12.7-21.64
					c-4.22-5.74-7.82-8.84-10.58-11.27c-2.81-2.41-4.77-4.22-6.72-7.09c-2.73-2.4-5.82-4.54-9.11-6.47
					c-3.29-1.93-6.85-3.56-10.57-4.84c-7.43-2.58-15.48-3.77-23.36-3.49c-7.89,0.26-15.59,1.86-22.67,4.42
					c-7.09,2.57-13.6,6.06-19.29,10.32c0.24,0.24-0.31,1.11-0.37,1.54c-0.05,0.46,0.34,0.4,2.52-0.91
					c5.51-4.44,12.6-7.34,18.24-8.49c5.66-1.22,9.82-0.86,10.17-0.02c-1.65,0.23-3.29,0.49-4.92,0.82c3-0.23,6-0.21,8.94-0.03
					c0.92-0.21,1.84-0.39,2.77-0.53c0.93-0.17,1.86-0.31,2.8-0.42c1.45,0.41,2.08,0.8,2.18,1.09c9.55,0.83,17.33,4.35,25.18,9.42
					c3.07,1.25,6.24,2.95,9.48,5.38C369.46,105.04,372.76,108.22,375.94,112.43z"/>
			</g>
		</g>
	</g>
</g>
</svg>
