<?xml version="1.0" encoding="utf-8"?>
<!-- Generator: Adobe Illustrator 24.3.0, SVG Export Plug-In . SVG Version: 6.00 Build 0)  -->
<svg version="1.1"
	 id="svg2" xmlns:cc="http://creativecommons.org/ns#" xmlns:dc="http://purl.org/dc/elements/1.1/" xmlns:rdf="http://www.w3.org/1999/02/22-rdf-syntax-ns#" xmlns:svg="http://www.w3.org/2000/svg"
	 xmlns="http://www.w3.org/2000/svg" xmlns:xlink="http://www.w3.org/1999/xlink" x="0px" y="0px" viewBox="0 0 1122.5 793.7"
	 style="enable-background:new 0 0 1122.5 793.7;" xml:space="preserve">
<style type="text/css">
	.st0{fill-rule:evenodd;clip-rule:evenodd;fill:#231F20;}
</style>
<g id="g10" transform="matrix(1.3333333,0,0,-1.3333333,0,793.70667)">
	<g id="g12" transform="scale(0.1)">
		<path id="path16" class="st0" d="M7356.9,2474.6c-48.2,0-87.2,38.9-87.2,87.5c0,48,38.9,86.9,87.2,86.9c48,0,87-38.9,87-86.9
			C7443.9,2513.5,7405,2474.6,7356.9,2474.6z M7356.9,2660.9c-55,0-99.4-44.4-99.4-98.9c0-55,44.4-99.4,99.4-99.4
			c54.8,0,98.9,44.4,98.9,99.4C7455.8,2616.6,7411.7,2660.9,7356.9,2660.9"/>
		<path id="path18" class="st0" d="M7354.4,2568.3h-20.8v39.2h31.7c13.8,0,28.8-2.1,28.8-19.2
			C7394.1,2565.7,7369.9,2568.3,7354.4,2568.3z M7407.8,2588c0,9.3-4.1,19.2-12.4,23.9c-8.3,4.9-17.6,5.4-27,5.4h-48.3v-110.8h13.5
			v51.1h24.9l31.7-51.1h16.1l-33.5,51.1C7392.5,2558.2,7407.8,2566.2,7407.8,2588"/>
		<path id="path20" class="st0" d="M6775.8,3123.7l202.7,216.4c11.7,15.9,17.6,27,17.6,36.5c0,15.9-13.7,22.2-56.6,22.2h-51.1v136.6
			h553.6v-136.6h-72.8c-84,0-99.6-12.7-216.8-160.4l-320.7-346.3v-211.3c0-54,27.3-73,105.5-73h121.1V2476h-775.3v131.9H6404
			c78.1,0,105.5,19,105.5,73v211.3L6131.8,3310c-62.5,73.1-53.8,88.9-227.6,88.9v136.6h701.2v-136.6h-49.9
			c-50.8,0-72.3-9.5-72.3-28.6c0-15.9,15.6-28.6,25.4-41.3l191.1-208.2C6722.3,3097.2,6749.9,3094.1,6775.8,3123.7"/>
		<path id="path22" class="st0" d="M2071.3,3535.6h169.1v-381.3h-156.2c-13.8,76.2-61.5,105.9-105,145.9
			c-78.5,72.1-248.4,132.1-391.3,132.1c-184.5,0-340.1-57.2-340.1-141.4c0-233.6,1055-47.7,1055-489.3c0-230.3-226-359-631.8-359
			c-140.5,0-353.1,43.6-478.6,110.2c-39.3,22.7-56-21.5-63.4-76.9H955.5v394h156.9c34.6-100.1,82.3-120.7,126.1-160.5
			c76.1-69.9,257.1-120.8,423.2-119.1c250.3,2.5,336.4,57.2,336.4,136.6c0,79.4-85.2,98.5-359.5,141.4l-232.9,38.1
			c-262.9,39.7-454.3,98.5-454.3,308.2c0,217.6,242.1,354.3,624.9,354.3c161.3,0,296.3-21.6,425.8-94.8
			C2038,3450.9,2071.7,3448.1,2071.3,3535.6"/>
		<path id="path24" class="st0" d="M5372.1,2897.3l3.3,423.7c0,55.6-28.9,74.6-111.5,74.6h-97.1v131.9h617.8v-131.9h-80.6
			c-82.7,0-111.6-19.1-111.6-74.6V2468l-241.9,1.9l-783,741.6v-538.5c0-54,28.9-74.6,111.5-74.6h107.5V2468H4145v130.3h106.3
			c82.6,0,111.6,20.6,111.6,74.6V3321c0,55.6-28.9,74.6-111.6,74.6H4145v131.9h554.8L5372.1,2897.3"/>
		<path id="path26" class="st0" d="M3291.5,2588.9c-272.5,0-429.2,157.3-429.2,428.9c0,265.3,163.5,422.6,442.8,422.6
			c268,0,424.7-160.5,424.7-433.7C3729.8,2739.8,3570.8,2588.9,3291.5,2588.9z M3302.7,3577c-492.4,0-800.6-217.7-800.6-567.1
			c0-343.2,303.9-559.2,785.6-559.2c511.6,0,809.1,212.9,809.1,576.7C4096.9,3354.5,3775.7,3577,3302.7,3577"/>
	</g>
</g>
</svg>
