<svg xmlns="http://www.w3.org/2000/svg" xmlns:xlink="http://www.w3.org/1999/xlink" viewBox="0 0 379.43 407.27"><defs><style>.a,.b,.c,.d,.h{fill:none;}.b,.c,.d,.h{stroke:#000;}.b,.c{stroke-linecap:round;}.b,.d,.h{stroke-miterlimit:10;}.b{stroke-width:8px;}.c{stroke-linejoin:round;}.c,.d{stroke-width:2px;}.e{fill:#fff;}.f{fill:#acefdf;}.g{clip-path:url(#a);}.h{stroke-width:3px;}</style><clipPath id="a" transform="translate(-46.18 -43.81)"><path class="a" d="M234.83,272.43c-45.21-1.44-88.75-6.89-88.75-6.89s4.55,12,10.43,32.58c2.5,8.78,23.26,26.27,43,35.93a107.86,107.86,0,0,0,33.85,10.1l1.52-.49,1.52.49a107.86,107.86,0,0,0,33.85-10.1c19.69-9.66,40.45-27.15,42.95-35.93,5.88-20.59,10.43-32.58,10.43-32.58S280,271,234.83,272.43Z"/></clipPath></defs><path class="b" d="M138.12,210.1q1.8,21.1,4.27,42.14c2,16.92,4.47,34.29,12.94,49.08C171.17,329,203.82,341.46,234,351.91" transform="translate(-46.18 -43.81)"/><path class="b" d="M332,210.1q-1.8,21.1-4.28,42.14c-2,16.92-4.47,34.29-12.94,49.08-15.84,27.67-48.49,40.14-78.61,50.59" transform="translate(-46.18 -43.81)"/><path class="c" d="M198.08,298.12c19.5,10.46,52.88,12.46,71.6.13" transform="translate(-46.18 -43.81)"/><path class="b" d="M257.63,241.18a53.68,53.68,0,0,1,40-4.49,1.4,1.4,0,0,1-2.19-.23" transform="translate(-46.18 -43.81)"/><path class="d" d="M256.65,211.52c29.93-20.94,59.93.06,59.93.06" transform="translate(-46.18 -43.81)"/><path class="b" d="M212.61,241.18a53.68,53.68,0,0,0-40-4.49,1.39,1.39,0,0,0,2.18-.23" transform="translate(-46.18 -43.81)"/><path class="d" d="M213.58,211.52c-29.93-20.94-59.93.06-59.93.06" transform="translate(-46.18 -43.81)"/><path d="M231.57,56.24l.11-.16c57.47.1,114,30.45,145.91,78.27s38.12,111.72,16.1,164.81c-28.24,68.1-100.75,113.4-174.39,107.68-47.81-3.71-94.23-27-124.53-64.37C55.6,294.13,45,224.22,68.19,166.47S147.27,65.47,209,57.59c7-.9,14-1.37,20.88-3,10.24-2.5,19.32-9.37,29.91-10.52,15.94-1.72,30.68,7,44,14.49,10.4,5.81,11.62,8.92,29.85,34.48,12.33,17.27,23.4,55.45,28.94,75.94,2.69,9.93,4.7,39,12.35,45.88,18.89,17,32.6,26.49,37.79,35,17.95,29.28,18,57.38-5.36,112.32,1-15.06,6.72-42.08,2.52-56.58S395.73,279.06,375,272.45c4.79,15.87-3.09,39.71-.85,56.14,1.19,8.75,5.37,16.8,7.34,25.41,6.16,26.88-21.87,72.2-49,77.17,14.17-14.17,20.73-24.9,22.25-34.39,2.06-12.86-9.8-21-10.91-29.86-9.22,11.95-.28,30.49-7.08,44s-23.08,19.48-43,34.46c8.32-9.45,32.94-25.47,23.81-39.85-1.24-2-23.12,23.88-23.32,21.57-.34-3.93,23.32-18-5.21-23.29-12.8-2.38-9.14-20.52-5.67-33.07s17.6-26.05,25.58-36.34C300,345.87,283.58,353.63,272,362.2c-9.23,6.81-19.87,17-17.56,30.58-2.86-16.81,4.48-35,17.9-45.44,7-5.43,15.43-8.87,22-14.78,7.83-7,12.42-16.89,16.12-26.72,14.67-39.08,18.28-81.94,12.74-123.31-2.94-21.94-8.87-44.47-23.59-61-11-12.33-26-20.32-41-27.08-8.18-3.66-16.75-7.23-22.86-13.78S226.76,63.7,231.57,56.24Zm-.22-9.58c-116.13,0-207.3,106.9-180.45,227.66a182.07,182.07,0,0,0,138,138C309.61,439.12,416.52,348,416.52,231.83c0-102.27-82.91-185.17-185.17-185.17Z" transform="translate(-46.18 -43.81)"/><path d="M186.08,75.08C135.7,111,142.8,174.82,143.52,220.25a50.38,50.38,0,0,1,26-8.09,43.53,43.53,0,0,1,5.62-24.5,56.11,56.11,0,0,0,2.62,21.91l15.71-.7a68.18,68.18,0,0,1,4.84-20.48,100.73,100.73,0,0,0,4.17,19.05,187.08,187.08,0,0,1,24.72,0l2.26-22.06a22.82,22.82,0,0,1,1.77,14l21.89,1.73c3.63.29,2.53-44.13,2.11-48-1.7-16,20-33.21,13.81-48.06-4.69-11.23,2.25-32.94-9-39C246.5,58.76,195,68.7,186.08,75.08Z" transform="translate(-46.18 -43.81)"/><path d="M289.08,81.08c21,35,26.58,82.12,36.42,126.48-5.13-4-10.49-5.65-15.31-4.78a76.28,76.28,0,0,0-8.42-23.2,102.57,102.57,0,0,1,3.57,21.66l-8.3,1.19a120,120,0,0,0-7.1-19.37,179.42,179.42,0,0,1,2.11,19.06,53.29,53.29,0,0,0-12.81,2.94l-6.12-21.23a41.66,41.66,0,0,0,2.24,13.91L264.41,202c-1.82.72-11.23-42.7-11.88-46.53a291.39,291.39,0,0,1-4.28-46.85c-.1-11.5-.73-35.48,3.74-42.74C257.38,57.17,284,72.62,289.08,81.08Z" transform="translate(-46.18 -43.81)"/><path d="M174.46,436.43c15.64-17.36,6.81-31.51,6.57-32.1-5-12.51-14.85-11.93-22.95-20.58-14-15-31-27.48-41.46-45.1a76,76,0,0,1-9.6-50c.72-4.58,1.85-9.32.57-13.78-1-3.67-3.62-6.68-5.73-9.88-6.94-10.51-9-23.51-9.36-36.11-1.06-38.47,12.38-75.76,27-111.38,11.4-27.89,26.93-51.83,56-63.69,10.26-4.18,21.18-6.47,32-8.74,8.25-1.72,18.66-2.62,23.28,4.42s1.46,12.3-2.33,17.22a32.39,32.39,0,0,1-8.24,7.41,122.93,122.93,0,0,0-34.87,33.79c-19.45,28.34-25.92,62.75-34.81,95.32-8.76,32-14.66,69.59-.71,101.3,12,27.27,32.16,54.31,59.83,65.39,15.47,6.2,28.52,21.76,24.47,38.2-.54-14.19-3-26.17-36-31,8.06,5.19,24.66,16.78,29.9,27.6,4.56,9.43,7.9,18.42,6,29.11-1.32,7.63-6.18,16.74-14.94,17.29,4.87-.31,8.1-9.15,7.88-12.92-.6-10.13-8.34-17.64-14.63-24.72,8,9,5.08,24.84-4.55,32.86,0,0,4.42-6.33,2.79-16.22-1.26-7.6-7.32-18.52-14.21-22.79C195.09,430.76,187.57,428.39,174.46,436.43Z" transform="translate(-46.18 -43.81)"/><path class="e" d="M327.21,366.92c1-7.68,5.92-13.81,10.67-19.58C332.6,353.75,327,359.69,321.46,366c-4.31,4.88-9.74,11.77-8,19.16,1.19,5.13,3.8,8.56,8.29,5.68C328.28,386.6,326.15,375.18,327.21,366.92Z" transform="translate(-46.18 -43.81)"/><path class="f" d="M234.83,342.08l-1.68.55a108.52,108.52,0,0,1-33-9.93c-18.89-9.27-39.78-26.6-42.17-35-4.36-15.29-8-25.95-9.62-30.39,9.8,1.15,47.73,5.37,86.45,6.6,38.81-1.23,76.75-5.45,86.55-6.6-1.58,4.44-5.26,15.1-9.62,30.39-2.4,8.39-23.29,25.72-42.17,35a108.43,108.43,0,0,1-33,9.93Z" transform="translate(-46.18 -43.81)"/><path d="M150.54,269.08c12.61,1.44,48.06,5.19,84.19,6.34h.2c36.13-1.15,71.58-4.9,84.19-6.34-1.85,5.33-5.1,15.07-8.85,28.22-.79,2.77-4.91,8.47-14.08,16.16a141.44,141.44,0,0,1-27.31,17.89,107.18,107.18,0,0,1-32.22,9.75l-.9-.29-.93-.31-.93.31-.9.29a107.1,107.1,0,0,1-32.22-9.75,141.44,141.44,0,0,1-27.31-17.89c-9.17-7.69-13.29-13.39-14.08-16.16-3.75-13.15-7-22.89-8.85-28.22m173-3.54S280,271,234.83,272.43c-45.21-1.44-88.75-6.89-88.75-6.89s4.55,12,10.43,32.58c2.5,8.78,23.26,26.27,43,35.93a107.86,107.86,0,0,0,33.85,10.1l1.52-.49,1.52.49a107.86,107.86,0,0,0,33.85-10.1c19.69-9.66,40.45-27.15,42.95-35.93,5.88-20.59,10.43-32.58,10.43-32.58Z" transform="translate(-46.18 -43.81)"/><g class="g"><path class="h" d="M154.7,287.72s55.44,9,79.18,9,82.7-9,82.7-9" transform="translate(-46.18 -43.81)"/><path class="h" d="M154.7,308.72s55.44,10,79.18,10,82.7-10,82.7-10" transform="translate(-46.18 -43.81)"/><path class="h" d="M154.7,329.72s55.44,7,79.18,7,82.7-7,82.7-7" transform="translate(-46.18 -43.81)"/></g></svg>